# xmcd CD database file
#
# Track frame offsets:
#	150
#	20575
#	38415
#	52542
#	65787
#	77287
#	91457
#	103380
#	118280
#	131660
#	146532
#	159757
#	174032
#	185509
#	198872
#	213597
#	227105
#	240390
#	254005
#	267862
#
# Disc length: 3771 seconds
#
# Revision: 1
# Processed by: cddbd v1.4PL0 Copyright (c) Steve Scherf et al.
# Submitted via: CDex 1.51
#
DISCID=0c0eb914
DTITLE=Charlie Parker - Anthology [CD2)
DYEAR=1900
DGENRE=Jazz
TTITLE0=Slam Slam Blues
TTITLE1=Congo Blues
TTITLE2=Takin' Off
TTITLE3=20thh Century Blues
TTITLE4=The Street Beat
TTITLE5=Billie's Bounce
TTITLE6=Warming Up a Riff
TTITLE7=Now's the Time
TTITLE8=Thriving On a Riff
TTITLE9=Meandering
TTITLE10=Koko
TTITLE11=Dizzy Boogie
TTITLE12=Flat Foot Floogie
TTITLE13=Popity Pop
TTITLE14=Slim's Jam
TTITLE15=Moose The Mooche
TTITLE16=Yardbird Suite
TTITLE17=Ornithology
TTITLE18=Night In Tunisia
TTITLE19=Lover Man
EXTD=
EXTT0=
EXTT1=
EXTT2=
EXTT3=
EXTT4=
EXTT5=
EXTT6=
EXTT7=
EXTT8=
EXTT9=
EXTT10=
EXTT11=
EXTT12=
EXTT13=
EXTT14=
EXTT15=
EXTT16=
EXTT17=
EXTT18=
EXTT19=
PLAYORDER=
